<svg width="50" height="50" viewBox="0 0 50 50" fill="none" xmlns="http://www.w3.org/2000/svg">
<rect width="50" height="50" rx="10" fill="#14919B"/>
<path d="M19.5735 24.9102H17.2404C17.1978 24.6083 17.1108 24.3402 16.9794 24.1058C16.848 23.8679 16.6793 23.6655 16.4734 23.4986C16.2674 23.3317 16.0295 23.2038 15.7596 23.1151C15.4933 23.0263 15.2038 22.9819 14.8913 22.9819C14.3267 22.9819 13.8349 23.1222 13.4158 23.4027C12.9968 23.6797 12.6719 24.0845 12.4411 24.6172C12.2102 25.1463 12.0948 25.7891 12.0948 26.5455C12.0948 27.3232 12.2102 27.9766 12.4411 28.5057C12.6754 29.0348 13.0021 29.4343 13.4212 29.7042C13.8402 29.9741 14.3249 30.109 14.8754 30.109C15.1843 30.109 15.4702 30.0682 15.733 29.9865C15.9993 29.9048 16.2354 29.7859 16.4414 29.6296C16.6474 29.4698 16.8178 29.2763 16.9528 29.049C17.0913 28.8217 17.1871 28.5625 17.2404 28.2713L19.5735 28.282C19.5131 28.7827 19.3622 29.2656 19.1207 29.7308C18.8828 30.1925 18.5614 30.6062 18.1566 30.9719C17.7553 31.3342 17.2759 31.6218 16.7184 31.8349C16.1644 32.0444 15.5376 32.1491 14.8381 32.1491C13.8651 32.1491 12.995 31.929 12.228 31.4886C11.4645 31.0483 10.8608 30.4109 10.4169 29.5763C9.97656 28.7418 9.75639 27.7315 9.75639 26.5455C9.75639 25.3558 9.98011 24.3438 10.4276 23.5092C10.875 22.6747 11.4822 22.0391 12.2493 21.6023C13.0163 21.1619 13.8793 20.9418 14.8381 20.9418C15.4702 20.9418 16.0561 21.0305 16.5959 21.2081C17.1392 21.3857 17.6204 21.6449 18.0394 21.9858C18.4585 22.3232 18.7994 22.7369 19.0621 23.2269C19.3285 23.717 19.4989 24.2781 19.5735 24.9102ZM21.2275 32V21.0909H25.5314C26.3553 21.0909 27.0584 21.2383 27.6408 21.533C28.2267 21.8242 28.6724 22.2379 28.9778 22.7741C29.2868 23.3068 29.4412 23.9336 29.4412 24.6545C29.4412 25.3789 29.285 26.0021 28.9725 26.5241C28.66 27.0426 28.2072 27.4403 27.6142 27.7173C27.0247 27.9943 26.3109 28.1328 25.4728 28.1328H22.5911V26.2791H25.1C25.5403 26.2791 25.9061 26.2187 26.1973 26.098C26.4885 25.9773 26.7051 25.7962 26.8471 25.5547C26.9927 25.3132 27.0655 25.0131 27.0655 24.6545C27.0655 24.2923 26.9927 23.9869 26.8471 23.7383C26.7051 23.4897 26.4867 23.3015 26.1919 23.1737C25.9007 23.0423 25.5332 22.9766 25.0893 22.9766H23.5339V32H21.2275ZM27.1188 27.0355L29.8301 32H27.2839L24.6312 27.0355H27.1188ZM31.0712 32V21.0909H38.2942V22.9925H33.3777V25.592H37.8148V27.4936H33.3777V32H31.0712Z" fill="white"/>
</svg>
